<?xml version="1.0" encoding="iso-8859-1"?>
<!-- Generator: Adobe Illustrator 19.0.0, SVG Export Plug-In . SVG Version: 6.00 Build 0)  -->
<svg version="1.1" id="Layer_1" xmlns="http://www.w3.org/2000/svg" xmlns:xlink="http://www.w3.org/1999/xlink" x="0px" y="0px"
	 viewBox="0 0 512 512" style="enable-background:new 0 0 512 512;" xml:space="preserve">
<circle style="fill:#FFEDB5;" cx="256" cy="256" r="256"/>
<g>
	<path style="fill:#FEE187;" d="M184.694,79.962l125.114,125.114H174.99C174.99,205.076,153.612,110.794,184.694,79.962z"/>
	<path style="fill:#FEE187;" d="M408.807,163.535L168.143,370.604l136.718,136.718c114.71-22.173,202.111-120.91,206.91-240.919
		L408.807,163.535z"/>
</g>
<path style="fill:#724101;" d="M321.507,219.962c-12.01-18.954-6.382-44.056,12.571-56.067c13.105-8.304,46.887-6.718,66.488-4.948
	c7.606,0.686,12.495,8.402,9.869,15.574c-6.768,18.48-19.758,49.707-32.863,58.011C358.619,244.543,333.517,238.914,321.507,219.962
	z"/>
<path style="fill:#895100;" d="M190.493,219.96c12.01-18.954,6.382-44.054-12.571-56.067c-13.105-8.304-46.887-6.716-66.489-4.948
	c-7.606,0.686-12.495,8.402-9.869,15.574c6.768,18.48,19.758,49.707,32.863,58.011C153.381,244.543,178.483,238.914,190.493,219.96z
	"/>
<path style="fill:#D48B07;" d="M184.694,79.962c0,0-25.036,56.889,23.064,83.609l-54.455,36.202
	C153.302,199.773,113.53,125.645,184.694,79.962z"/>
<path style="fill:#AA6B07;" d="M327.306,79.962c0,0,25.036,56.889-23.064,83.609l54.455,36.202
	C358.698,199.773,398.47,125.645,327.306,79.962z"/>
<path style="fill:#684000;" d="M138.383,276.016c0.019,95.308,52.676,127.183,117.617,127.148
	c64.958-0.034,117.617-31.882,117.617-127.148S320.958,139.867,256,139.867S138.364,180.75,138.383,276.016z"/>
<path style="fill:#4F2F00;" d="M256,139.867c-0.481,0-0.955,0.024-1.436,0.029v263.247c0.481,0.003,0.955,0.022,1.436,0.022
	c64.958-0.034,117.617-31.882,117.617-127.148S320.958,139.867,256,139.867z"/>
<ellipse style="fill:#D48B07;" cx="256" cy="334.489" rx="87.616" ry="56.523"/>
<path style="fill:#AA6B07;" d="M256,277.966c-0.481,0-0.957,0.019-1.436,0.024v113c0.479,0.005,0.955,0.024,1.436,0.024
	c48.388,0,87.616-25.307,87.616-56.523C343.616,303.273,304.388,277.966,256,277.966z"/>
<g>
	<circle style="fill:#543200;" cx="206.834" cy="334.489" r="14.92"/>
	<circle style="fill:#543200;" cx="305.166" cy="334.489" r="14.92"/>
</g>
<circle style="fill:#000002;" cx="208.006" cy="230.624" r="8.232"/>
<path style="fill:#FFEDB5;" d="M208.008,241.433c-5.965,0-10.818-4.851-10.818-10.816c0-5.965,4.853-10.816,10.818-10.816
	c5.965,0,10.816,4.851,10.816,10.816C218.824,236.582,213.973,241.433,208.008,241.433z M208.008,224.971
	c-3.113,0-5.646,2.532-5.646,5.644s2.534,5.644,5.646,5.644s5.644-2.532,5.644-5.644S211.122,224.971,208.008,224.971z"/>
<circle style="fill:#000002;" cx="303.994" cy="230.624" r="8.232"/>
<g>
	<path style="fill:#FFEDB5;" d="M303.992,241.433c-5.965,0-10.816-4.851-10.816-10.816c0-5.965,4.851-10.816,10.816-10.816
		s10.817,4.851,10.817,10.816C314.809,236.582,309.957,241.433,303.992,241.433z M303.992,224.971c-3.113,0-5.644,2.532-5.644,5.644
		s2.532,5.644,5.644,5.644s5.646-2.532,5.646-5.644S307.105,224.971,303.992,224.971z"/>
	<path style="fill:#FFEDB5;" d="M256,378.049c-32.671,0-58.263-18.018-58.263-41.024c0-4.567,3.701-8.27,8.27-8.27
		s8.27,3.701,8.27,8.27c0,13.271,19.108,24.485,41.724,24.485c22.616,0,41.724-11.214,41.724-24.485c0-4.567,3.701-8.27,8.27-8.27
		s8.27,3.701,8.27,8.27C314.263,360.031,288.671,378.049,256,378.049z"/>
</g>
<path style="fill:#FEE187;" d="M305.993,328.756c-4.567,0-8.27,3.701-8.27,8.27c0,13.271-19.108,24.485-41.724,24.485
	c-0.481,0-0.958-0.012-1.436-0.022v16.536c0.479,0.009,0.953,0.024,1.436,0.024c32.671,0,58.263-18.018,58.263-41.024
	C314.263,332.459,310.56,328.756,305.993,328.756z"/>
<g>
</g>
<g>
</g>
<g>
</g>
<g>
</g>
<g>
</g>
<g>
</g>
<g>
</g>
<g>
</g>
<g>
</g>
<g>
</g>
<g>
</g>
<g>
</g>
<g>
</g>
<g>
</g>
<g>
</g>
</svg>
