<?xml version="1.0" encoding="iso-8859-1"?>
<!-- Generator: Adobe Illustrator 19.0.0, SVG Export Plug-In . SVG Version: 6.00 Build 0)  -->
<svg version="1.1" id="Layer_1" xmlns="http://www.w3.org/2000/svg" xmlns:xlink="http://www.w3.org/1999/xlink" x="0px" y="0px"
	 viewBox="0 0 512 512" style="enable-background:new 0 0 512 512;" xml:space="preserve">
<circle style="fill:#FFEDB5;" cx="256" cy="256" r="256"/>
<g>
	<polygon style="fill:#FEE187;" points="116.853,74.788 302.589,260.523 161.79,260.523 89.886,204.329 	"/>
	<path style="fill:#FEE187;" d="M500.6,180.241L395.147,74.788c7.159,26.314,13.5,55.432,7.385,82.949
		c-13.791,53.441-81.024,46.545-124.121,62.061c-53.441,17.239-51.717,86.195-70.68,131.017
		c-12.502,27.781-21.445,54.901-29.503,83.584l77.858,77.6C397.433,511.952,512,397.355,512,256
		C512,229.624,508.007,204.183,500.6,180.241z"/>
</g>
<path style="fill:#8C5907;" d="M332.448,303.287c0,0,39.495,82.148,0.693,131.543c-2.531,3.222-7.535,2.853-9.69-0.631
	l-6.277-10.145c-2.693-4.351-9.221-3.503-10.764,1.377c-5.025,15.891-17.705,41.358-48.73,52.807
	c-1.634,0.603-3.453,0.405-4.963-0.464c-9.038-5.201-40.641-24.943-49.592-51.441c-1.605-4.751-8.047-5.441-10.686-1.176
	l-4.998,8.078c-2.346,3.793-7.88,3.777-10.171-0.048c-11.604-19.38-34.304-72.976,14.631-141.622L332.448,303.287z"/>
<path style="fill:#704405;" d="M332.448,303.287l-77.022-6.425v181.691c0.76,0.038,1.526-0.047,2.257-0.317
	c31.027-11.45,43.704-36.917,48.73-52.807c1.543-4.879,8.071-5.729,10.762-1.377l6.277,10.145c2.155,3.484,7.159,3.851,9.69,0.631
	C371.945,385.434,332.448,303.287,332.448,303.287z"/>
<path style="fill:#684000;" d="M148.035,286.384c26.434,96.459,71.663,117.734,108.908,117.734
	c38.578,0,89.391-15.484,108.908-117.734c16.539-86.649-48.761-106.911-108.908-106.911S124.721,201.307,148.035,286.384z"/>
<path style="fill:#543200;" d="M256.945,179.471c-0.505,0-1.012,0.005-1.519,0.009v224.623c0.507,0.007,1.014,0.014,1.519,0.014
	c38.578,0,89.391-15.484,108.908-117.734C382.392,199.735,317.093,179.471,256.945,179.471z"/>
<ellipse style="fill:#D48B07;" cx="256" cy="373.208" rx="56.611" ry="36.53"/>
<path style="fill:#BF7908;" d="M256,336.68c-0.193,0-0.383,0.009-0.574,0.009v73.026c0.191,0.002,0.381,0.009,0.574,0.009
	c31.266,0,56.611-16.351,56.611-36.523C312.611,353.032,287.266,336.68,256,336.68z"/>
<g>
	<circle style="fill:#543200;" cx="224.228" cy="373.208" r="9.64"/>
	<circle style="fill:#543200;" cx="287.772" cy="373.208" r="9.64"/>
</g>
<g>
	<circle style="fill:#FFEDB5;" cx="211.558" cy="282.221" r="7.621"/>
	<circle style="fill:#FFEDB5;" cx="300.442" cy="282.221" r="7.621"/>
</g>
<path style="fill:#895203;" d="M257.562,179.471c-10.624,0-20.89,0.588-30.598,2.034l21.339,117.015
	c1.553,8.516,13.762,8.516,15.315,0l21.418-117.451C276.259,179.94,267.054,179.471,257.562,179.471z"/>
<path style="fill:#704405;" d="M257.562,179.471c-0.719,0-1.422,0.026-2.136,0.031v125.364c3.612,0.233,7.375-1.867,8.192-6.346
	l21.418-117.451C276.259,179.938,267.054,179.471,257.562,179.471z"/>
<path style="fill:#D48B07;" d="M331.288,218.472h56.796c33.97,0,57.199-34.309,44.582-65.85L395.147,74.79v50.674
	c0,16.203-13.112,29.353-29.315,29.381c-12.657,0.022-29.462-0.024-50.51-0.231c-36.854-0.365-52.884,15.536-59.323,25.569
	c-6.439-10.033-22.469-25.934-59.323-25.569c-21.049,0.209-37.854,0.253-50.51,0.231c-16.203-0.029-29.315-13.178-29.315-29.381
	V74.788l-37.516,77.834c-12.616,31.541,10.612,65.85,44.582,65.85h56.796H331.288z"/>
<path style="fill:#995D07;" d="M432.666,152.623L395.147,74.79v50.674c0,16.203-13.112,29.353-29.315,29.381
	c-12.657,0.022-29.462-0.022-50.509-0.231c-36.854-0.365-52.884,15.536-59.323,25.569c-0.183-0.284-0.376-0.576-0.574-0.869v39.16
	h75.862h56.796C422.053,218.471,445.283,184.163,432.666,152.623z"/>
<g>
</g>
<g>
</g>
<g>
</g>
<g>
</g>
<g>
</g>
<g>
</g>
<g>
</g>
<g>
</g>
<g>
</g>
<g>
</g>
<g>
</g>
<g>
</g>
<g>
</g>
<g>
</g>
<g>
</g>
</svg>
