<?xml version="1.0" standalone="no"?><!DOCTYPE svg PUBLIC "-//W3C//DTD SVG 1.1//EN" "http://www.w3.org/Graphics/SVG/1.1/DTD/svg11.dtd"><svg t="1588040538333" class="icon" viewBox="0 0 1024 1024" version="1.1" xmlns="http://www.w3.org/2000/svg" p-id="2467" xmlns:xlink="http://www.w3.org/1999/xlink" width="128" height="128"><defs><style type="text/css"></style></defs><path d="M461.7 790.9c26.2 28 70 29.3 98 3.2 1.1-1.1 2.2-2.1 3.2-3.2L992 340.2c13.5-14.4 21-33.4 20.9-53.2 1-40.5-31-74-71.5-75.1-19 0.3-37.1 8.2-50.1 22L511.8 631.5 133.2 233.9c-13.1-13.9-31.5-21.9-50.7-22C42 213 10 246.5 11 287c-0.1 19.8 7.4 38.8 20.9 53.2l429.8 450.7z" p-id="2468" fill="#ffffff"></path></svg>