<svg height="512pt" viewBox="0 0 512 512" width="512pt" xmlns="http://www.w3.org/2000/svg"><path d="m0 334.9375c0-112.082031 114.613281-228.828125 256-228.828125s256 116.746094 256 228.828125-114.613281 177.0625-256 177.0625-256-64.976562-256-177.0625zm0 0" fill="#544f4f"/><path d="m256 106.109375c-5.191406 0-10.339844.175781-15.453125.484375 134.1875 8.097656 240.546875 120.375 240.546875 228.34375 0 107.972656-106.359375 172.21875-240.546875 176.792969 5.113281.171875 10.261719.269531 15.453125.269531 141.386719 0 256-64.976562 256-177.0625 0-112.082031-114.613281-228.828125-256-228.828125zm0 0" fill="#4d4848"/><path d="m170.105469 69.988281c0 38.652344-31.332031 69.984375-69.984375 69.984375s-69.988282-31.332031-69.988282-69.984375c0-38.652343 31.335938-69.988281 69.988282-69.988281s69.984375 31.335938 69.984375 69.988281zm0 0" fill="#544f4f"/><path d="m100.121094 0c-5.3125 0-10.480469.613281-15.453125 1.734375 31.214843 7.035156 54.53125 34.914063 54.53125 68.253906 0 33.339844-23.320313 61.214844-54.53125 68.253907 4.972656 1.121093 10.140625 1.730468 15.453125 1.730468 38.652344 0 69.984375-31.332031 69.984375-69.984375 0-38.652343-31.332031-69.988281-69.984375-69.988281zm0 0" fill="#4d4848"/><path d="m481.867188 69.988281c0 38.652344-31.335938 69.984375-69.988282 69.984375s-69.984375-31.332031-69.984375-69.984375c0-38.652343 31.332031-69.988281 69.984375-69.988281s69.988282 31.335938 69.988282 69.988281zm0 0" fill="#544f4f"/><path d="m411.878906 0c-5.3125 0-10.476562.613281-15.453125 1.734375 31.214844 7.035156 54.535157 34.914063 54.535157 68.253906 0 33.339844-23.320313 61.214844-54.535157 68.253907 4.976563 1.121093 10.140625 1.730468 15.453125 1.730468 38.652344 0 69.988282-31.332031 69.988282-69.984375 0-38.652343-31.335938-69.988281-69.988282-69.988281zm0 0" fill="#4d4848"/><path d="m459.597656 262.558594c0 112.445312-91.152344 189.175781-203.597656 189.175781s-203.597656-76.730469-203.597656-189.175781c0-112.445313 91.152344-218.023438 203.597656-218.023438s203.597656 105.582032 203.597656 218.023438zm0 0" fill="#fff3d9"/><path d="m256 44.535156c-4.582031 0-9.125.195313-13.632812.539063 106.082031 8.097656 189.964843 109.625 189.964843 217.484375 0 107.863281-83.878906 182.847656-189.964843 188.785156 4.503906.25 9.050781.390625 13.632812.390625 112.445312 0 203.597656-76.730469 203.597656-189.171875 0-112.445312-91.152344-218.027344-203.597656-218.027344zm0 0" fill="#e8d3a9"/><path d="m306.898438 357.542969c0 17.566406-22.789063 41.019531-50.898438 41.019531s-50.898438-23.453125-50.898438-41.019531c0-17.570313 22.789063-22.605469 50.898438-22.605469s50.898438 5.035156 50.898438 22.605469zm0 0" fill="#544f4f"/><path d="m256 334.9375c-4.726562 0-9.292969.148438-13.632812.464844 21.488281 1.585937 37.265624 7.523437 37.265624 22.136718 0 14.617188-15.777343 33.292969-37.265624 39.160157 4.339843 1.1875 8.90625 1.863281 13.632812 1.863281 28.109375 0 50.898438-23.453125 50.898438-41.023438 0-17.566406-22.789063-22.601562-50.898438-22.601562zm0 0" fill="#4d4848"/><path d="m416.964844 234.210938c0 38.679687-31.089844 70.027343-69.441406 70.027343-38.355469 0-69.445313-31.347656-69.445313-70.027343 0-5.347657 0-24.734376 0-29.566407 0-31.5625 25.371094-57.148437 56.667969-57.148437 42.371094 0 82.21875 60.828125 82.21875 86.714844zm0 0" fill="#544f4f"/><path d="m334.746094 147.496094c-5.613282 0-11.03125.835937-16.152344 2.367187 36.421875 11.441407 67.464844 61.5 67.464844 84.347657 0 33.320312-23.078125 61.179687-53.988282 68.269531 4.96875 1.136719 10.136719 1.761719 15.453126 1.761719 38.347656 0 69.441406-31.351563 69.441406-70.03125 0-25.886719-39.847656-86.714844-82.21875-86.714844zm0 0" fill="#4d4848"/><path d="m95.035156 234.210938c0 38.679687 31.089844 70.027343 69.441406 70.027343 38.355469 0 69.445313-31.347656 69.445313-70.027343 0-5.347657 0-24.734376 0-29.566407 0-31.5625-25.371094-57.148437-56.667969-57.148437-42.371094 0-82.21875 60.828125-82.21875 86.714844zm0 0" fill="#544f4f"/><path d="m177.253906 147.496094c-4.972656 0-9.910156.847656-14.757812 2.367187 23.425781 7.015625 40.519531 28.878907 40.519531 54.78125v29.566407c0 33.320312-23.078125 61.179687-53.992187 68.265624 4.972656 1.140626 10.136718 1.761719 15.453124 1.761719 38.351563 0 69.445313-31.347656 69.445313-70.027343 0-5.347657 0-24.734376 0-29.566407 0-31.5625-25.371094-57.148437-56.667969-57.148437zm0 0" fill="#4d4848"/></svg>