<svg xmlns="http://www.w3.org/2000/svg" xmlns:xlink="http://www.w3.org/1999/xlink" width="30" height="30" viewBox="0 0 30 30" fill="none"><defs><rect id="path_0" x="0" y="0" width="30" height="30" /><rect id="path_1" x="0" y="0" width="22" height="22" /></defs><g opacity="1" transform="translate(0 0)  rotate(0 15 15)"><mask id="bg-mask" fill="white"><use xlink:href="#path_0"></use></mask><g mask="url(#bg-mask)" ><path id="矩形 1" fill-rule="evenodd" style="fill:#FFFFFF" transform="translate(0 0)  rotate(0 15 15)" opacity="1" d="M0,30L30,30L30,0L0,0L0,30Z " /><g opacity="1" transform="translate(4 4)  rotate(0 11 11)"><mask id="bg-mask" fill="white"><use xlink:href="#path_1"></use></mask><g mask="url(#bg-mask)" ><path id="分组 1" fill-rule="evenodd" style="fill:#000000" transform="translate(0.36683678710937534 0.00010180545413879076)  rotate(0 10.559831046875 10.999951432878158)" opacity="1" d="M1.33 0.95C0.34 1.03 0 1.68 0 2.45L0 15.79C0 16.39 0.21 16.9 0.73 17.59L3.6 21.31C4.07 21.91 4.5 22.03 5.4 21.99L19.58 21.14C20.78 21.05 21.12 20.5 21.12 19.55L21.12 4.54C21.12 4.05 20.93 3.91 20.36 3.5C20.33 3.48 20.29 3.45 20.26 3.43L16.36 0.69C15.42 0.01 15.04 -0.08 13.54 0.05L1.33 0.95Z M1.96779 2.53485L3.63779 3.85485C4.29779 4.39485 4.55779 4.37485 5.71779 4.29485L5.86779 4.28485L17.9878 3.55485C18.2478 3.55485 18.0378 3.30485 17.9478 3.25485L15.9378 1.80485C15.5478 1.50485 15.0378 1.16485 14.0478 1.24485L2.31779 2.10485C1.88779 2.14485 1.79779 2.36485 1.96779 2.53485Z M5.47986 20.3277L18.8099 19.5577C19.5799 19.5077 19.6599 19.0377 19.6599 18.4877L19.6599 5.82768C19.6599 5.26768 19.4499 4.96768 18.9799 5.00768L5.04986 5.82768C4.53986 5.86768 4.36986 6.12768 4.36986 6.67768L4.36986 19.4277C4.36986 20.1077 4.70986 20.3677 5.47986 20.3277Z M6.72407 18.3542L9.68407 18.1842C10.7541 18.1842 10.7541 17.4142 10.7541 17.4142L9.42407 17.1142L9.42407 10.7442L13.6241 17.3342C14.1341 17.9742 14.3041 18.1842 14.9941 18.1842C15.4241 18.1842 15.9341 18.0142 16.4941 17.7142L16.4941 8.30416L17.1341 8.17416C17.5241 8.13416 17.6041 7.74416 17.5241 7.36416L14.5641 7.53416C14.1341 7.57416 13.7941 7.92416 13.8841 8.39416L14.9941 8.51416L14.9941 14.4242L10.6241 7.74416L7.45407 7.96416C6.85407 8.00416 6.64407 8.56416 6.72407 8.94416L7.79407 9.03416L7.79407 17.4542L7.02407 17.6742C6.72407 17.7542 6.64407 18.1842 6.72407 18.3542Z " /></g></g></g></g></svg>