<?xml version="1.0" standalone="no"?><!DOCTYPE svg PUBLIC "-//W3C//DTD SVG 1.1//EN" "http://www.w3.org/Graphics/SVG/1.1/DTD/svg11.dtd"><svg t="1586321990169" class="icon" viewBox="0 0 1024 1024" version="1.1" xmlns="http://www.w3.org/2000/svg" p-id="2388" xmlns:xlink="http://www.w3.org/1999/xlink" width="200" height="200"><defs><style type="text/css"></style></defs><path d="M238.276923 53.169231h521.846154c17.723077 0 31.507692 13.784615 31.507692 31.507692 0 9.846154-3.938462 17.723077-9.846154 23.630769l-141.784615 141.784616c86.646154 76.8 328.861538 344.615385 45.292308 687.261538l-3.938462 3.938462c0 1.969231-1.969231 1.969231-3.938461 3.938461-5.907692 7.876923-15.753846 13.784615-27.569231 13.784616-17.723077 0-31.507692-13.784615-31.507692-31.507693v-5.907692c0-1.969231 0-3.938462 1.96923-3.938462 9.846154-43.323077 70.892308-338.707692-189.046154-460.8l-171.323076 171.323077c-5.907692 5.907692-13.784615 9.846154-21.661539 9.846154-17.723077 0-31.507692-13.784615-31.507692-31.507692V86.646154c-1.969231-17.723077 13.784615-33.476923 31.507692-33.476923z" p-id="2389" fill="#1a8bdf"></path></svg>